<svg width="20" height="18" viewBox="0 0 20 18" fill="none" xmlns="http://www.w3.org/2000/svg">
<path d="M6.00313 17.9912H7.07374L8.56601 13.4942H7.57775L6.57961 17.0226H6.53679L5.52876 13.4942H4.49768L6.00313 17.9912Z" fill="#2F479B"/>
<path d="M1.88758 13.3317C2.13349 13.3317 2.36088 13.368 2.56947 13.4404C2.78021 13.5107 2.96373 13.6129 3.11961 13.7468C3.27543 13.8807 3.39853 14.0391 3.48856 14.2212C3.58073 14.4034 3.63236 14.6068 3.64338 14.8307V14.9131H2.7836C2.77037 14.7529 2.72533 14.6099 2.64854 14.4848C2.57388 14.3597 2.47164 14.2618 2.34217 14.1916C2.21265 14.1192 2.06318 14.0829 1.89416 14.0829C1.68782 14.0829 1.5098 14.1346 1.3605 14.2377C1.21346 14.3409 1.10026 14.4905 1.0212 14.6857C0.944377 14.8811 0.905945 15.1186 0.905904 15.3974V15.9541C0.905904 16.2307 0.944437 16.4659 1.0212 16.6591C1.09803 16.8523 1.21017 16.9996 1.35721 17.1006C1.50655 17.1994 1.68553 17.2489 1.89416 17.2489C2.06546 17.2489 2.2159 17.2159 2.34547 17.15C2.47496 17.0819 2.5772 16.9885 2.65183 16.87C2.72638 16.7515 2.77043 16.6151 2.7836 16.4615H3.64338V16.5471C3.62802 16.8325 3.54333 17.0853 3.38973 17.3049C3.23603 17.5223 3.02948 17.6925 2.77042 17.8155C2.51128 17.9385 2.217 18 1.88758 18C1.48349 18 1.14089 17.9187 0.859786 17.7562C0.578775 17.5915 0.364525 17.3564 0.217417 17.0512C0.0725853 16.746 0 16.38 0 15.9541V15.3941C5.03515e-05 14.9682 0.0736208 14.6011 0.220711 14.2937C0.367847 13.9864 0.582083 13.7489 0.86308 13.5821C1.14634 13.4152 1.48797 13.3317 1.88758 13.3317Z" fill="#2F479B"/>
<path d="M15.7419 15.7433C15.7419 16.9854 14.735 17.9923 13.493 17.9923H8.99536V16.8678H13.493C14.114 16.8678 14.6175 16.3643 14.6175 15.7433V11.2452H15.7419V15.7433Z" fill="#2F479B"/>
<path d="M15.7419 5.06034V6.74712H14.6175V5.06034H12.3686C11.4371 5.06034 10.682 4.30514 10.682 3.37356V1.12452H2.24884C1.62784 1.12452 1.12442 1.62798 1.12442 2.24904V12.3697H0V2.24904C0 1.00693 1.00684 0 2.24884 0H10.682L15.7419 5.06034Z" fill="#2F479B"/>
<path d="M19.9384 9.12632C19.9576 9.11129 19.9731 9.09209 19.9838 9.07017C19.9945 9.04825 20 9.02419 20 8.99981C20 8.97543 19.9945 8.95137 19.9838 8.92945C19.9731 8.90753 19.9576 8.88833 19.9384 8.8733L17.0932 6.62426C17.0695 6.60572 17.0411 6.59422 17.0112 6.59107C16.9813 6.58791 16.9511 6.59324 16.9241 6.60644C16.8971 6.61963 16.8743 6.64017 16.8584 6.66569C16.8425 6.69122 16.8341 6.7207 16.8342 6.75077V8.23474H13.0914C13.0031 8.23474 12.9308 8.30703 12.9308 8.39538V9.60023C12.9308 9.68858 13.0031 9.76087 13.0914 9.76087L16.8322 9.76087V11.2489C16.8322 11.3834 16.9868 11.4577 17.0912 11.3754L19.9384 9.12632Z" fill="#2F479B"/>
<path d="M5.05989 11.8075C5.05989 11.8075 4.49768 11.8075 4.49768 11.2452C4.49768 10.6829 5.05989 8.99616 7.87094 8.99616C10.682 8.99616 11.2442 10.6829 11.2442 11.2452C11.2442 11.8075 10.682 11.8075 10.682 11.8075H5.05989ZM7.87094 8.4339C8.31826 8.4339 8.74726 8.25618 9.06356 7.93985C9.37987 7.62352 9.55757 7.19448 9.55757 6.74712C9.55757 6.29976 9.37987 5.87072 9.06356 5.55438C8.74726 5.23805 8.31826 5.06034 7.87094 5.06034C7.42361 5.06034 6.99461 5.23805 6.67831 5.55438C6.36201 5.87072 6.18431 6.29976 6.18431 6.74712C6.18431 7.19448 6.36201 7.62352 6.67831 7.93985C6.99461 8.25618 7.42361 8.4339 7.87094 8.4339Z" fill="#2F479B"/>
</svg>
